<svg xmlns="http://www.w3.org/2000/svg" style="display:none">

<symbol id="arrow-right" viewBox="0 0 14 14">
<path d="M10.586 6.15704L6.636 2.20704C6.45384 2.01844 6.35305 1.76584 6.35533 1.50364C6.3576 1.24144 6.46277 0.99063 6.64818 0.805222C6.83359 0.619814 7.0844 0.514645 7.3466 0.512367C7.6088 0.510088 7.8614 0.610883 8.05 0.793041L13.707 6.45004C13.8002 6.54269 13.8741 6.65285 13.9246 6.77419C13.9751 6.89552 14.001 7.02563 14.001 7.15704C14.001 7.28845 13.9751 7.41856 13.9246 7.53989C13.8741 7.66123 13.8002 7.77139 13.707 7.86404L8.05 13.521C7.95775 13.6166 7.84741 13.6927 7.7254 13.7451C7.6034 13.7976 7.47218 13.8251 7.3394 13.8263C7.20662 13.8274 7.07494 13.8021 6.95205 13.7519C6.82915 13.7016 6.7175 13.6273 6.62361 13.5334C6.52971 13.4395 6.45546 13.3279 6.40518 13.205C6.3549 13.0821 6.3296 12.9504 6.33075 12.8176C6.3319 12.6849 6.35949 12.5536 6.4119 12.4316C6.46431 12.3096 6.54049 12.1993 6.636 12.107L10.586 8.15704H1C0.734784 8.15704 0.48043 8.05168 0.292893 7.86415C0.105357 7.67661 0 7.42226 0 7.15704C0 6.89182 0.105357 6.63747 0.292893 6.44993C0.48043 6.2624 0.734784 6.15704 1 6.15704H10.586V6.15704Z" fill="currentColor"/>
</symbol>

<symbol id="youtube" viewBox="0 0 20 14">
<path d="M15.812 0.0171133H4.145C1.855 0.0171133 0 1.85211 0 4.11611V9.88411C0 12.1481 1.856 13.9841 4.145 13.9841H15.812C18.102 13.9841 19.957 12.1481 19.957 9.88411V4.11611C19.957 1.85211 18.101 0.0161133 15.812 0.0161133V0.0171133ZM13.009 7.28011L7.552 9.85511C7.51872 9.87114 7.48192 9.87848 7.44503 9.87647C7.40815 9.87445 7.37237 9.86313 7.34103 9.84357C7.3097 9.82401 7.28382 9.79684 7.2658 9.76459C7.24779 9.73234 7.23822 9.69605 7.238 9.65911V4.35011C7.23867 4.31299 7.24872 4.27663 7.26722 4.24444C7.28573 4.21224 7.31208 4.18526 7.34382 4.16599C7.37556 4.14673 7.41167 4.13581 7.44877 4.13425C7.48587 4.1327 7.52276 4.14057 7.556 4.15711L13.014 6.89211C13.0504 6.91024 13.0809 6.93826 13.102 6.97294C13.1232 7.00762 13.1341 7.04756 13.1336 7.08818C13.1331 7.1288 13.1211 7.16845 13.0991 7.20258C13.077 7.2367 13.0458 7.26392 13.009 7.28111V7.28011Z" fill="currentColor"/>
</symbol>

<symbol id="twitter" viewBox="0 0 20 17">
<path d="M20 1.90716C19.2504 2.23454 18.4565 2.4492 17.644 2.54416C18.4968 2.0434 19.138 1.24927 19.448 0.310164C18.64 0.780492 17.7587 1.11177 16.841 1.29016C16.4545 0.88537 15.9897 0.563551 15.4748 0.344342C14.9598 0.125133 14.4056 0.0131294 13.846 0.0151639C11.58 0.0151639 9.743 1.82516 9.743 4.05516C9.743 4.37116 9.779 4.68016 9.849 4.97516C8.22358 4.89786 6.63212 4.48257 5.17617 3.7558C3.72022 3.02903 2.43176 2.00674 1.393 0.754164C1.02883 1.36857 0.837415 2.06994 0.839 2.78416C0.839697 3.45213 1.00683 4.10939 1.32529 4.69656C1.64375 5.28372 2.1035 5.78228 2.663 6.14716C2.01248 6.12616 1.37602 5.95249 0.805 5.64016V5.69016C0.805 7.64816 2.22 9.28116 4.095 9.65316C3.74261 9.74666 3.37958 9.79406 3.015 9.79416C2.75 9.79416 2.493 9.76916 2.242 9.71916C2.51008 10.5271 3.02311 11.2315 3.70982 11.7345C4.39653 12.2375 5.22284 12.5142 6.074 12.5262C4.61407 13.6507 2.82182 14.2582 0.979 14.2532C0.647 14.2532 0.321 14.2332 0 14.1972C1.88125 15.3879 4.06259 16.0184 6.289 16.0152C13.836 16.0152 17.962 9.85816 17.962 4.51916L17.948 3.99616C18.7529 3.42983 19.4481 2.72201 20 1.90716Z" fill="currentColor"/>
</symbol>

<symbol id="facebook" viewBox="0 0 10 20">
<path d="M2.04623 3.865V6.613H0.0322266V9.973H2.04623V19.959H6.18023V9.974H8.95523C8.95523 9.974 9.21523 8.363 9.34123 6.601H6.19723V4.303C6.19723 3.96 6.64723 3.498 7.09323 3.498H9.34723V0H6.28323C1.94323 0 2.04623 3.363 2.04623 3.865Z" fill="currentColor"/>
</symbol>

<symbol id="instagram" viewBox="0 0 24 24">
<path d="M16.017 2H7.947C6.37015 2.00185 4.85844 2.62914 3.74353 3.74424C2.62862 4.85933 2.00159 6.37115 2 7.948L2 16.018C2.00185 17.5948 2.62914 19.1066 3.74424 20.2215C4.85933 21.3364 6.37115 21.9634 7.948 21.965H16.018C17.5948 21.9631 19.1066 21.3359 20.2215 20.2208C21.3364 19.1057 21.9634 17.5938 21.965 16.017V7.947C21.9631 6.37015 21.3359 4.85844 20.2208 3.74353C19.1057 2.62862 17.5938 2.00159 16.017 2V2ZM19.957 16.017C19.957 16.5344 19.8551 17.0468 19.6571 17.5248C19.4591 18.0028 19.1689 18.4371 18.803 18.803C18.4371 19.1689 18.0028 19.4591 17.5248 19.6571C17.0468 19.8551 16.5344 19.957 16.017 19.957H7.947C6.90222 19.9567 5.90032 19.5415 5.16165 18.8026C4.42297 18.0638 4.008 17.0618 4.008 16.017V7.947C4.00827 6.90222 4.42349 5.90032 5.16235 5.16165C5.90122 4.42297 6.90322 4.008 7.948 4.008H16.018C17.0628 4.00827 18.0647 4.42349 18.8034 5.16235C19.542 5.90122 19.957 6.90322 19.957 7.948V16.018V16.017Z" fill="currentColor"/>
<path d="M11.9818 6.81885C10.6133 6.82096 9.30136 7.36563 8.33372 8.33345C7.36609 9.30127 6.82168 10.6133 6.81982 11.9818C6.82141 13.3508 7.36585 14.6632 8.33372 15.6312C9.3016 16.5993 10.6139 17.144 11.9828 17.1458C13.3519 17.1443 14.6645 16.5997 15.6326 15.6316C16.6007 14.6635 17.1452 13.3509 17.1468 11.9818C17.1447 10.6129 16.5998 9.30073 15.6315 8.33304C14.6633 7.36535 13.3507 6.82117 11.9818 6.81985V6.81885ZM11.9818 15.1378C11.1451 15.1378 10.3426 14.8054 9.7509 14.2138C9.15922 13.6221 8.82682 12.8196 8.82682 11.9828C8.82682 11.1461 9.15922 10.3436 9.7509 9.75193C10.3426 9.16025 11.1451 8.82785 11.9818 8.82785C12.8186 8.82785 13.6211 9.16025 14.2127 9.75193C14.8044 10.3436 15.1368 11.1461 15.1368 11.9828C15.1368 12.8196 14.8044 13.6221 14.2127 14.2138C13.6211 14.8054 12.8186 15.1378 11.9818 15.1378Z" fill="currentColor"/>
<path d="M17.1559 8.09509C17.8391 8.09509 18.3929 7.54127 18.3929 6.85809C18.3929 6.17492 17.8391 5.62109 17.1559 5.62109C16.4728 5.62109 15.9189 6.17492 15.9189 6.85809C15.9189 7.54127 16.4728 8.09509 17.1559 8.09509Z" fill="currentColor"/>
</symbol>

<symbol id="linkedln" viewBox="0 0 20 20">
<path d="M19.959 11.7189V19.0979H15.681V12.2129C15.681 10.4829 15.062 9.30288 13.514 9.30288C12.332 9.30288 11.628 10.0989 11.319 10.8679C11.206 11.1429 11.177 11.5259 11.177 11.9109V19.0979H6.897C6.897 19.0979 6.955 7.43788 6.897 6.22888H11.177V8.05288L11.149 8.09488H11.177V8.05288C11.745 7.17788 12.76 5.92688 15.033 5.92688C17.848 5.92688 19.959 7.76688 19.959 11.7189ZM2.421 0.0258789C0.958 0.0258789 0 0.985879 0 2.24888C0 3.48388 0.93 4.47288 2.365 4.47288H2.393C3.886 4.47288 4.813 3.48388 4.813 2.24888C4.787 0.985879 3.887 0.0258789 2.422 0.0258789H2.421ZM0.254 19.0979H4.532V6.22888H0.254V19.0979Z" fill="currentColor"/>
</symbol>

</svg>
